<?xml version="1.0" encoding="utf-8"?>
<!-- Generator: Adobe Illustrator 27.9.0, SVG Export Plug-In . SVG Version: 6.00 Build 0)  -->
<svg version="1.1" id="Camada_1" xmlns="http://www.w3.org/2000/svg" xmlns:xlink="http://www.w3.org/1999/xlink" x="0px" y="0px"
	 viewBox="0 0 24.4 16.3" style="enable-background:new 0 0 24.4 16.3;" xml:space="preserve">
<style type="text/css">
	.st0{fill:#FFFFFF;}
</style>
<g id="_x23_">
	<path class="st0" d="M7.6,0C8.3,0,9.1,0,9.9,0.2c0.8,0.3,1.4,0.9,1.8,1.6c2.2,4.8,4.3,9.7,6.5,14.5c-0.7,0-1.3,0.1-2-0.1
		c-1-0.2-1.8-0.9-2.2-1.8c-1.8-4-3.5-8-5.3-12C8.3,1.7,7.9,0.9,7.6,0z"/>
	<path class="st0" d="M12.5,0c3.2,0,6.3,0,9.5,0c0.8,0,1.6,0,2.4,0c0,0.4,0,0.9-0.1,1.3C24,2.3,23,3.1,22,3c-1.9,0-3.9,0-5.8,0
		c-0.9,0-1.8-0.4-2.4-1C13.2,1.4,13,0.6,12.5,0z"/>
	<path class="st0" d="M6.8,1.6c0.8,1.7,1,3.8,0.6,5.6c-0.2,1.1-0.8,2.1-1.2,3.1c1.2,0,2.4,0,3.6,0c0.8,0,1.4,0.7,1.4,1.5
		c0,0.7-0.6,1.4-1.4,1.4c-1,0-2-0.1-3,0.2c-1.2,0.4-2.3,1.1-2.9,2.2c-0.2,0.2-0.3,0.5-0.5,0.7c-1.1-0.1-2.1,0-3.2,0
		c0.3-0.9,0.8-1.8,1.1-2.6c0.9-2.1,1.9-4.2,2.9-6.4C5,5.4,5.8,3.5,6.8,1.6z"/>
	<path class="st0" d="M15.7,6.7c2.8,0,5.6,0,8.4,0c0,0.6,0,1.3-0.4,1.8c-0.4,0.6-1.1,1-1.8,1c-1,0-1.9,0-2.9,0
		c-0.9,0-1.8-0.4-2.3-1.1C16.2,8,16,7.3,15.7,6.7z"/>
	<path class="st0" d="M18.6,13.3c1.9,0,3.8,0,5.8,0c0,0.4,0,0.7,0,1.1c-0.2,1.1-1.1,1.9-2.2,2c-1.2,0.1-2.4-0.6-2.9-1.7
		C19,14.2,18.9,13.7,18.6,13.3z"/>
</g>
</svg>
